# File created by Blade
# Date/Time:  Tue Apr 07 21:36:59 2015
# Frame Rate: 120.000 fps
#------------------------------------------------------
:FULLY-SPECIFIED
:DEGREES
374
root 6.608318 32.640947 9.574429 200.391224 -94.761135 -174.369427
Spine 0.325641 -7.358165 0.846415
Head -17.118094 -4.872782 3.756896
LeftShoulder -0.391500 33.006333 20.673861
LeftArm 78.718865 22.641148 -50.871165
LeftForeArm 1.052689 -0.000000 9.553466
LeftHand 11.440357 -0.000000 -3.844281
LeftHandThumb1 -26.253704 0.000000 33.147579
RightShoulder 5.030122 1.476378 -19.799407
RightArm 25.449727 -30.648122 83.791424
RightForeArm -6.596909 -0.000000 15.741853
RightHand 7.706666 0.000000 4.678676
RightHandThumb1 -24.326973 -0.000000 -32.862282
LeftUpLeg -43.138529 -6.854474 4.475766
LeftLeg 23.551752 -0.000000 -0.000000
LeftFoot -8.724900 7.418676 -22.081198
LeftToeBase -4.660685 -0.000000 0.000000
RightUpLeg -36.702197 1.912004 -1.308273
RightLeg 7.139548 -0.000000 -0.000000
RightFoot -1.805691 -10.561388 7.052767
RightToeBase -1.360504 -0.000000 0.000000
375
root 6.649645 32.617774 9.539198 202.194651 -94.874129 -176.130473
Spine 0.434280 -7.292845 1.046145
Head -17.301392 -4.908971 3.784980
LeftShoulder -0.178005 32.689778 20.820814
LeftArm 78.928980 22.147954 -51.250748
LeftForeArm 0.660028 -0.000000 9.875525
LeftHand 11.777137 -0.000000 -3.439284
LeftHandThumb1 -26.253704 0.000000 33.147579
RightShoulder 5.162253 1.834532 -19.908279
RightArm 26.043908 -30.523222 83.329616
RightForeArm -6.676750 -0.000000 16.001376
RightHand 7.969887 -0.000000 4.490960
RightHandThumb1 -24.326973 -0.000000 -32.862282
LeftUpLeg -43.813723 -6.750119 4.572196
LeftLeg 24.681922 -0.000000 -0.000000
LeftFoot -9.278133 7.151752 -22.121220
LeftToeBase -4.461010 -0.000000 0.000000
RightUpLeg -36.886660 1.900491 -1.115379
RightLeg 7.277694 -0.000000 -0.000000
RightFoot -1.918624 -10.500384 7.134635
RightToeBase -1.195967 -0.000000 0.000000
376
root 6.688025 32.592079 9.503465 205.181559 -95.037186 -179.087991
Spine 0.527488 -7.263983 1.400101
Head -17.444558 -4.903261 3.776780
LeftShoulder 0.003052 32.355615 20.936883
LeftArm 79.075248 21.638439 -51.807422
LeftForeArm 0.296620 -0.000000 10.261825
LeftHand 12.445224 -0.000000 -2.199083
LeftHandThumb1 -26.253704 0.000000 33.147579
RightShoulder 5.284159 2.255567 -20.043809
RightArm 26.633329 -30.355862 82.893419
RightForeArm -6.775842 -0.000000 16.221010
RightHand 8.129493 0.000000 4.144400
RightHandThumb1 -24.326973 -0.000000 -32.862282
LeftUpLeg -44.468352 -6.526704 4.684856
LeftLeg 25.810669 -0.000000 -0.000000
LeftFoot -9.823881 6.806834 -21.854724
LeftToeBase -4.704351 -0.000000 0.000000
RightUpLeg -37.039698 1.925734 -0.816086
RightLeg 7.388739 -0.000000 -0.000000
RightFoot -2.034516 -10.479998 7.241874
RightToeBase -0.971850 -0.000000 0.000000
377
root 6.740775 32.571846 9.475851 207.088276 -95.196595 -180.900050
Spine 0.580529 -7.305465 1.669677
Head -17.581332 -4.895728 3.784779
LeftShoulder 0.134646 31.946262 21.035184
LeftArm 79.217151 21.111818 -52.336380
LeftForeArm -0.298603 -0.000000 10.713930
LeftHand 12.733637 0.000000 -1.983170
LeftHandThumb1 -26.253704 0.000000 33.147579
RightShoulder 5.435056 2.702842 -20.157982
RightArm 27.350217 -30.203181 82.353846
RightForeArm -6.699919 -0.000000 16.414457
RightHand 8.218377 -0.000000 4.335298
RightHandThumb1 -24.326973 -0.000000 -32.862282
LeftUpLeg -44.983690 -6.736107 5.032119
LeftLeg 26.387331 -0.000000 -0.000000
LeftFoot -10.309885 6.379552 -22.576687
LeftToeBase -5.171378 -0.000000 0.000000
RightUpLeg -37.327066 1.869232 -0.592987
RightLeg 7.594230 -0.000000 -0.000000
RightFoot -2.114401 -10.413842 7.350570
RightToeBase -0.964610 -0.000000 0.000000
378
root 6.786537 32.551582 9.441102 208.751580 -94.953877 -182.494014
Spine 0.646826 -7.000253 1.594660
Head -17.644416 -4.845885 4.005894
LeftShoulder 0.231783 31.654079 21.204945
LeftArm 79.475434 20.487540 -52.774094
LeftForeArm -0.732621 0.000000 11.216899
LeftHand 13.066844 -0.000000 -0.883381
LeftHandThumb1 -26.253704 0.000000 33.147579
RightShoulder 5.568865 3.218722 -20.123980
RightArm 27.970961 -29.987024 81.900522
RightForeArm -6.767252 -0.000000 16.623754
RightHand 8.344554 -0.000000 4.190782
RightHandThumb1 -24.326973 -0.000000 -32.862282
LeftUpLeg -45.278478 -6.495786 5.109361
LeftLeg 26.718487 -0.000000 -0.000000
LeftFoot -10.540629 5.663178 -23.001481
LeftToeBase -5.752213 -0.000000 0.000000
RightUpLeg -37.653047 2.063577 -0.478268
RightLeg 7.880790 -0.000000 -0.000000
RightFoot -2.182566 -10.272662 7.375375
RightToeBase -1.015925 -0.000000 0.000000
379
root 6.821499 32.534545 9.415206 210.181054 -94.901275 -183.869612
Spine 0.682877 -6.899533 1.646583
Head -17.672259 -4.793391 4.114914
LeftShoulder 0.307650 31.350170 21.256469
LeftArm 79.642348 19.806748 -53.353702
LeftForeArm -1.540008 -0.000000 11.875126
LeftHand 12.971061 -0.000000 -0.739667
LeftHandThumb1 -26.253704 0.000000 33.147579
RightShoulder 5.691060 3.650691 -20.101987
RightArm 28.732341 -29.764105 81.327831
RightForeArm -6.673022 -0.000000 16.830457
RightHand 8.508991 -0.000000 4.182634
RightHandThumb1 -24.326973 -0.000000 -32.862282
LeftUpLeg -45.407608 -6.252854 5.093514
LeftLeg 26.681090 -0.000000 -0.000000
LeftFoot -10.261295 4.832619 -22.880630
LeftToeBase -5.820417 -0.000000 0.000000
RightUpLeg -37.859887 2.299648 -0.456622
RightLeg 8.040793 -0.000000 -0.000000
RightFoot -2.302153 -10.374446 7.500831
RightToeBase -0.988023 -0.000000 0.000000
380
root 6.856076 32.518343 9.391244 212.069748 -94.790575 -185.717935
Spine 0.730545 -6.784424 1.681890
Head -17.676108 -4.670446 4.278706
LeftShoulder 0.346369 30.986762 21.337308
LeftArm 79.785181 19.195010 -53.889907
LeftForeArm -2.080929 -0.000000 12.487779
LeftHand 13.097351 -0.000000 -0.785694
LeftHandThumb1 -26.253704 0.000000 33.147579
RightShoulder 5.818978 4.121816 -20.070843
RightArm 29.473514 -29.435284 80.821012
RightForeArm -6.938749 0.000000 17.068270
RightHand 8.683255 0.000000 4.132123
RightHandThumb1 -24.326973 -0.000000 -32.862282
LeftUpLeg -45.393903 -6.075065 5.161707
LeftLeg 26.383331 -0.000000 -0.000000
LeftFoot -10.132410 4.110016 -22.844818
LeftToeBase -4.889173 -0.000000 0.000000
RightUpLeg -38.050460 2.472398 -0.346844
RightLeg 8.182013 -0.000000 -0.000000
RightFoot -2.337173 -10.348778 7.550723
RightToeBase -1.035839 -0.000000 0.000000
381
root 6.886131 32.504535 9.370908 213.944992 -94.630870 -187.607213
Spine 0.825055 -6.645783 1.664893
Head -17.649148 -4.522006 4.453388
LeftShoulder 0.418270 30.584378 21.439116
LeftArm 79.868141 18.534587 -54.499327
LeftForeArm -2.570330 -0.000000 13.174141
LeftHand 13.095828 -0.000000 -0.313390
LeftHandThumb1 -26.253704 0.000000 33.147579
RightShoulder 5.871726 4.453242 -19.990004
RightArm 30.545274 -29.198183 80.093961
RightForeArm -6.955450 -0.000000 17.210788
RightHand 8.897446 -0.000000 4.058476
RightHandThumb1 -24.326973 -0.000000 -32.862282
LeftUpLeg -45.176182 -6.011458 5.291974
LeftLeg 25.782613 -0.000000 -0.000000
LeftFoot -10.097340 3.869839 -22.782929
LeftToeBase -4.902029 -0.000000 0.000000
RightUpLeg -38.156653 2.645027 -0.244412
RightLeg 8.272836 -0.000000 -0.000000
RightFoot -2.364180 -10.284405 7.621530
RightToeBase -0.966582 -0.000000 0.000000
382
root 6.927752 32.492552 9.352534 216.130044 -94.423829 -189.653395
Spine 0.744380 -6.481949 1.637728
Head -17.580271 -4.381966 4.606485
LeftShoulder 0.464249 30.217512 21.572561
LeftArm 80.058399 17.868995 -54.966469
LeftForeArm -3.786939 -0.000000 13.843491
LeftHand 13.300831 -0.000000 0.012935
LeftHandThumb1 -26.253704 0.000000 33.147579
RightShoulder 5.998158 4.945510 -19.984662
RightArm 31.280400 -28.703245 79.742613
RightForeArm -7.115057 0.000000 17.474958
RightHand 9.021622 -0.000000 4.089699
RightHandThumb1 -24.326973 -0.000000 -32.862282
LeftUpLeg -45.021798 -6.026504 5.500679
LeftLeg 24.943313 -0.000000 -0.000000
LeftFoot -9.986810 4.401180 -22.560680
LeftToeBase -5.027003 -0.000000 0.000000
RightUpLeg -38.441920 2.873739 -0.203375
RightLeg 8.366213 -0.000000 -0.000000
RightFoot -2.349680 -10.222314 7.776546
RightToeBase -0.992987 -0.000000 0.000000
